# xmcd
#
# Track frame offsets:
#	150
#	14320
#	31076
#	47270
#	66350
#	77635
#	94968
#	116037
#	129677
#	146587
#	164863
#	180000
#	198163
#	214216
#	231315
#	253021
#	266542
#	281870
#	298578
#	316739
#
# Disc length: 4432
#
# Revision: 1
# Processed by: cddbd v1.5.1PL0 Copyright (c) Steve Scherf et al.
# Submitted via: ExactAudioCopy v0.90b4
# Normalized: r0:DSETVAR1,TDELIM( - )
#
DISCID=25114e14
DTITLE=Various Artist - Ostermanns Erben Vol3
DYEAR=2000
DGENRE=Karneval
TTITLE0=Höhner - Dat es ne jode Lade he
TTITLE1=De Räuber - Titicacasee
TTITLE2=Bläck Fööss - Lappa Loma de Mallorca
TTITLE3=Paveier - Kritt die Fott och langsam Falde
TTITLE4=De Räuber - Wer nit mieh bütz
TTITLE5=Bläck Fööss - Schötzefess live
TTITLE6=Paveier - Wat hammer eijentlich zo verliere Elly
TTITLE7=Höhner - Nemm mich su wieich ben Remake 97
TTITLE8=Bläck Fööss - Wenn et Leech usjing im Roxy
TTITLE9=Paveier - Staats es d'r Bock
TTITLE10=Höhner - Der liebe Gott weiß, dass ich kein Engel bin
TTITLE11=De Räuber - Manchmal denk ich ahn doheim
TTITLE12=Paveier - Du un ich un die decke Backe Musik
TTITLE13=Höhner - Wann jeit d'r Himmel widder op Arsch Huh-Version
TTITLE14=Bläck Fööss - Samba im Veedel
TTITLE15=De Räuber - Wo bleibt der Wein
TTITLE16=Paveier - Gran Canaria
TTITLE17=Höhner - Leever en Mösch en d'r Hand
TTITLE18=De Räuber - Kirmesleed
TTITLE19=Bläck Fööss - En unserem Veedel Live
EXTD=
EXTT0=
EXTT1=
EXTT2=
EXTT3=
EXTT4=
EXTT5=
EXTT6=
EXTT7=
EXTT8=
EXTT9=
EXTT10=
EXTT11=
EXTT12=
EXTT13=
EXTT14=
EXTT15=
EXTT16=
EXTT17=
EXTT18=
EXTT19=
PLAYORDER=
